<svg xmlns="http://www.w3.org/2000/svg" version="1.1" xmlns:xlink="http://www.w3.org/1999/xlink" xmlns:svgjs="http://svgjs.dev/svgjs" width="1000" height="1000" viewBox="0 0 1000 1000"><rect width="1000" height="1000" fill="#000000"></rect><g transform="matrix(0.7,0,0,0.7,149.57575757575756,282.1265587044535)"><svg viewBox="0 0 396 247" data-background-color="#ffffff" preserveAspectRatio="xMidYMid meet" height="623" width="1000" xmlns="http://www.w3.org/2000/svg" xmlns:xlink="http://www.w3.org/1999/xlink"><defs></defs><g id="tight-bounds" transform="matrix(1,0,0,1,0.2400000000000091,-0.09999999999999432)"><svg viewBox="0 0 395.52 247.2" height="247.2" width="395.52"><g><svg></svg></g><g><svg viewBox="0 0 395.52 247.2" height="247.2" width="395.52"><g transform="matrix(0.5894230769230769, 0, 0, 0.5894230769230769, 75.15999999999998, 0.9999999999999858)"><svg xmlns="http://www.w3.org/2000/svg" xmlns:xlink="http://www.w3.org/1999/xlink" version="1.1" x="0" y="0" viewBox="48 48 416 416" enable-background="new 0 0 512 512" xml:space="preserve" height="416" width="416" class="icon-none" data-fill-palette-color="accent" id="none"><g fill="#ba3b0a" data-fill-palette-color="accent"><path d="M423.592 132.804C427.006 127.714 429 121.59 429 115c0-17.675-14.33-32-32-32-6.59 0-12.714 1.994-17.805 5.409C344.709 63.015 302.11 48 256 48 141.125 48 48 141.125 48 256c0 114.877 93.125 208 208 208 114.873 0 208-93.123 208-208C464 209.889 448.984 167.29 423.592 132.804zM391.83 391.832c-17.646 17.646-38.191 31.499-61.064 41.174-23.672 10.012-48.826 15.089-74.766 15.089-25.94 0-51.095-5.077-74.767-15.089-22.873-9.675-43.417-23.527-61.064-41.174s-31.5-38.191-41.174-61.064C68.982 307.096 63.905 281.94 63.905 256c0-25.94 5.077-51.095 15.089-74.767 9.674-22.873 23.527-43.417 41.174-61.064s38.191-31.5 61.064-41.174C204.905 68.982 230.06 63.905 256 63.905c25.939 0 51.094 5.077 74.766 15.089 13.446 5.687 26.08 12.83 37.802 21.327C366.293 104.719 365 109.707 365 115c0 17.675 14.327 32 32 32 5.293 0 10.28-1.293 14.678-3.568 8.498 11.721 15.641 24.355 21.327 37.801 10.013 23.672 15.09 48.827 15.09 74.767 0 25.939-5.077 51.096-15.09 74.768C423.33 353.641 409.478 374.186 391.83 391.832z" fill="#ffffff" data-fill-palette-color="accent"></path><circle cx="256.003" cy="256" r="96" fill="#ffffff" data-fill-palette-color="accent"></circle></g></svg></g><rect width="348.05760000000004" height="42.580868746091284" fill="#ffffff" y="102.30956562695435" x="23.731199999999973" data-fill-palette-color="quaternary"></rect><g transform="matrix(1,0,0,1,39.55199999999999,109.13788306299509)"><svg viewBox="0 0 316.416 28.924233874009808" height="28.924233874009808" width="316.416"><g><svg viewBox="0 0 316.416 28.924233874009808" height="28.924233874009808" width="316.416"><g><svg viewBox="0 0 316.416 28.924233874009808" height="28.924233874009808" width="316.416"><g><svg viewBox="0 0 316.416 28.924233874009808" height="28.924233874009808" width="316.416"><g><svg viewBox="0 0 316.416 28.924233874009808" height="28.924233874009808" width="316.416"><g><svg viewBox="0 0 316.416 28.924233874009808" height="28.924233874009808" width="316.416"><g transform="matrix(1,0,0,1,0,0)"><svg width="316.416" viewBox="2.5 -36 397.62 36.35" height="28.924233874009808" data-palette-color="#10afed"><path d="M26.2-18.15Q29.4-17.4 31.18-15.08 32.95-12.75 32.95-9.7L32.95-9.7Q32.95-5.05 29.88-2.53 26.8 0 21.05 0L21.05 0 2.5 0 2.5-35.4 20.55-35.4Q25.95-35.4 29.05-33.05 32.15-30.7 32.15-26.2L32.15-26.2Q32.15-23.1 30.53-20.98 28.9-18.85 26.2-18.15L26.2-18.15ZM13.6-26.6L13.6-21.6 17.9-21.6Q19.4-21.6 20.13-22.2 20.85-22.8 20.85-24.05L20.85-24.05Q20.85-25.35 20.13-25.98 19.4-26.6 17.9-26.6L17.9-26.6 13.6-26.6ZM18.65-8.9Q20.15-8.9 20.88-9.47 21.6-10.05 21.6-11.35L21.6-11.35Q21.6-13.9 18.65-13.9L18.65-13.9 13.6-13.9 13.6-8.9 18.65-8.9ZM36.7-35.4L47.8-35.4 47.8 0 36.7 0 36.7-35.4ZM86.75-35.4L86.75 0 75.65 0 63.9-17.8 63.9 0 52.8 0 52.8-35.4 63.9-35.4 75.65-17.3 75.65-35.4 86.75-35.4ZM116.19 0L114.44-5.35 102.64-5.35 100.89 0 89.24 0 102.19-35.4 114.99-35.4 127.89 0 116.19 0ZM105.34-13.7L111.74-13.7 108.54-23.55 105.34-13.7ZM160.39 0L148.19 0 141.54-12.7 141.49-12.7 141.49 0 130.39 0 130.39-35.4 146.89-35.4Q151.19-35.4 154.24-33.88 157.29-32.35 158.82-29.73 160.34-27.1 160.34-23.8L160.34-23.8Q160.34-20.25 158.37-17.5 156.39-14.75 152.69-13.55L152.69-13.55 160.39 0ZM141.49-26.1L141.49-20.1 145.89-20.1Q147.49-20.1 148.29-20.83 149.09-21.55 149.09-23.1L149.09-23.1Q149.09-24.5 148.27-25.3 147.44-26.1 145.89-26.1L145.89-26.1 141.49-26.1ZM185.39-35.4L197.89-35.4 185.19-10.75 185.19 0 174.09 0 174.09-10.75 161.39-35.4 174.09-35.4 179.74-22.85 185.39-35.4ZM207.88-17.75Q207.88-23 210.01-27.1 212.13-31.2 216.08-33.48 220.03-35.75 225.38-35.75L225.38-35.75Q229.98-35.75 233.61-34.02 237.23-32.3 239.51-29.15 241.78-26 242.53-21.8L242.53-21.8 230.83-21.8Q230.03-23.55 228.56-24.53 227.08-25.5 225.18-25.5L225.18-25.5Q222.38-25.5 220.76-23.4 219.13-21.3 219.13-17.75L219.13-17.75Q219.13-14.2 220.76-12.1 222.38-10 225.18-10L225.18-10Q227.08-10 228.56-10.98 230.03-11.95 230.83-13.7L230.83-13.7 242.53-13.7Q241.78-9.5 239.51-6.35 237.23-3.2 233.61-1.48 229.98 0.25 225.38 0.25L225.38 0.25Q220.03 0.25 216.08-2.02 212.13-4.3 210.01-8.4 207.88-12.5 207.88-17.75L207.88-17.75ZM263.78 0.35Q258.78 0.35 254.61-2 250.43-4.35 247.98-8.5 245.53-12.65 245.53-17.85L245.53-17.85Q245.53-23.05 247.98-27.2 250.43-31.35 254.61-33.68 258.78-36 263.78-36L263.78-36Q268.78-36 272.93-33.68 277.08-31.35 279.51-27.2 281.93-23.05 281.93-17.85L281.93-17.85Q281.93-12.65 279.51-8.5 277.08-4.35 272.91-2 268.73 0.35 263.78 0.35L263.78 0.35ZM263.78-10Q267.08-10 268.88-12.13 270.68-14.25 270.68-17.85L270.68-17.85Q270.68-21.5 268.88-23.63 267.08-25.75 263.78-25.75L263.78-25.75Q260.43-25.75 258.63-23.63 256.83-21.5 256.83-17.85L256.83-17.85Q256.83-14.25 258.63-12.13 260.43-10 263.78-10L263.78-10ZM299.78 0.35Q293.43 0.35 289.3-2.63 285.18-5.6 284.83-11.35L284.83-11.35 296.63-11.35Q296.88-8.3 299.33-8.3L299.33-8.3Q300.23-8.3 300.85-8.72 301.48-9.15 301.48-10.05L301.48-10.05Q301.48-11.3 300.13-12.08 298.78-12.85 295.93-13.85L295.93-13.85Q292.53-15.05 290.3-16.2 288.08-17.35 286.48-19.55 284.88-21.75 284.93-25.2L284.93-25.2Q284.93-28.65 286.7-31.08 288.48-33.5 291.55-34.75 294.63-36 298.48-36L298.48-36Q304.98-36 308.8-33 312.63-30 312.83-24.55L312.83-24.55 300.88-24.55Q300.83-26.05 300.13-26.7 299.43-27.35 298.43-27.35L298.43-27.35Q297.73-27.35 297.28-26.88 296.83-26.4 296.83-25.55L296.83-25.55Q296.83-24.35 298.15-23.58 299.48-22.8 302.38-21.7L302.38-21.7Q305.73-20.45 307.9-19.3 310.08-18.15 311.68-16.1 313.28-14.05 313.28-10.95L313.28-10.95Q313.28-7.7 311.68-5.13 310.08-2.55 307.03-1.1 303.98 0.35 299.78 0.35L299.78 0.35ZM346.18-35.4L359.73-35.4 359.73 0 348.68 0 348.68-17.65 343.23 0 333.73 0 328.28-17.65 328.28 0 317.18 0 317.18-35.4 330.78-35.4 338.58-14.15 346.18-35.4ZM381.97 0.35Q376.97 0.35 372.8-2 368.62-4.35 366.17-8.5 363.72-12.65 363.72-17.85L363.72-17.85Q363.72-23.05 366.17-27.2 368.62-31.35 372.8-33.68 376.97-36 381.97-36L381.97-36Q386.97-36 391.12-33.68 395.27-31.35 397.7-27.2 400.12-23.05 400.12-17.85L400.12-17.85Q400.12-12.65 397.7-8.5 395.27-4.35 391.1-2 386.92 0.35 381.97 0.35L381.97 0.35ZM381.97-10Q385.27-10 387.07-12.13 388.87-14.25 388.87-17.85L388.87-17.85Q388.87-21.5 387.07-23.63 385.27-25.75 381.97-25.75L381.97-25.75Q378.62-25.75 376.82-23.63 375.02-21.5 375.02-17.85L375.02-17.85Q375.02-14.25 376.82-12.13 378.62-10 381.97-10L381.97-10Z" opacity="1" transform="matrix(1,0,0,1,0,0)" fill="#ffffff" class="undefined-text-0" data-fill-palette-color="primary" id="text-0"></path></svg></g></svg></g></svg></g></svg></g></svg></g></svg></g></svg></g></svg></g></svg><rect width="395.52" height="247.2" fill="none" stroke="none" visibility="hidden"></rect></g></svg></g></svg>